<?xml version="1.0" standalone="no"?>
<!DOCTYPE svg PUBLIC "-//W3C//DTD SVG 1.1//EN" "http://www.w3.org/Graphics/SVG/1.1/DTD/svg11.dtd" >
<svg xmlns="http://www.w3.org/2000/svg" xmlns:xlink="http://www.w3.org/1999/xlink" version="1.1">
<metadata>
Created by FontForge 20170731 at Tue Oct  4 17:37:20 2016
 By Aleksey,,,
Copyright (c) 2016 by cruzine. All rights reserved.
</metadata>
<defs>
<font id="StarshipRegular" horiz-adv-x="109" >
  <font-face 
    font-family="Starship Regular"
    font-weight="400"
    font-stretch="normal"
    units-per-em="1000"
    panose-1="0 0 0 0 0 0 0 0 0 0"
    ascent="750"
    descent="-250"
    x-height="615"
    cap-height="676"
    bbox="-232 -236 818 764"
    underline-thickness="50"
    underline-position="-150"
    unicode-range="U+0020-007D"
  />
<missing-glyph horiz-adv-x="302" 
 />
    <glyph glyph-name=".notdef" horiz-adv-x="302" 
 />
    <glyph glyph-name=".null" horiz-adv-x="0" 
 />
    <glyph glyph-name="nonmarkingreturn" horiz-adv-x="333" 
 />
    <glyph glyph-name="space" unicode=" " horiz-adv-x="302" 
 />
    <glyph glyph-name="exclam" unicode="!" horiz-adv-x="134" 
d="M67 71q14 0 24 -10.5t10 -24.5t-10 -24t-24 -10t-24.5 10t-10.5 24t10.5 24.5t24.5 10.5zM91 366q-1 -7 -1 -13q0 -11 3 -18q3 -12 8 -18q5 -7 13 -10q-8 -3 -14 -10q-5 -6 -10 -17.5t-7 -31.5q-3 -33 -5 -63.5t-4 -56.5h-14q-2 26 -4.5 56.5t-4.5 63.5q-2 20 -7 31.5
t-10 17.5q-6 7 -14 10q7 3 12 10q5 6 9 18q2 7 2 18q0 6 -1 13q-3 37 -5 70t-4 59.5t-3 44t-1 22.5q0 44 27 53q2 0 5 0.5t6 0.5t5.5 -0.5t4.5 -0.5q28 -9 28 -53q0 -5 -1 -22.5t-3 -44t-4.5 -59.5t-5.5 -70z" />
    <glyph glyph-name="quotedbl" unicode="&#x22;" horiz-adv-x="197" 
d="M142 651q14 0 24.5 -10.5t10.5 -24.5v-9q-2 -28 -19 -48.5t-40 -33.5v16q23 18 30 41q-2 0 -3 -0.5t-3 -0.5q-14 0 -24 10t-11 24v1q0 14 10.5 24.5t24.5 10.5zM55 651q14 0 24 -10.5t10 -24.5v-9q-2 -28 -18.5 -48.5t-39.5 -33.5v16q10 8 18 18.5t12 22.5q-2 0 -3 -0.5
t-3 -0.5q-14 0 -24 10t-11 24v1q0 14 10 24.5t25 10.5z" />
    <glyph glyph-name="numbersign" unicode="#" horiz-adv-x="310" 
d="M214 408v-42h76v-38h-76v-42h76v-38h-76v-41h-38v41h-42v-41h-38v41h-76v38h76v42h-76v38h76v42h38v-42h42v42h38zM176 286v42h-42v-42h42z" />
    <glyph glyph-name="dollar" unicode="$" horiz-adv-x="464" 
d="M408 186q1 -5 2 -13t4.5 -15t10.5 -12t19 -5q-11 0 -19.5 -5t-14.5 -11.5t-9.5 -12.5t-4.5 -8v-1q-19 -44 -60.5 -72t-101.5 -30v-65h-38v66q-20 2 -36 6t-29 9q-18 6 -32.5 11t-30.5 5t-20.5 -9.5t-6.5 -23.5h-16v202h16q4 -47 21 -78t40 -50t48 -27.5t46 -10.5v232
q-32 17 -63 35.5t-56.5 40.5t-41 49.5t-15.5 63.5q0 34 14 63t38 50t55.5 32.5t66.5 11.5h2v65h38v-69q11 -2 21 -5.5t19 -7.5q17 -6 29.5 -11t20.5 -5q17 0 22.5 10t7.5 23h16v-203h-16q-4 58 -35 103.5t-85 59.5v-218q30 -16 59.5 -33t54 -37t41 -44.5t19.5 -55.5z
M196 580h-6q-19 0 -37 -7t-32.5 -19t-23.5 -29t-9 -37q0 -18 8.5 -33.5t23.5 -29t34.5 -25.5t41.5 -24v204zM318 82q8 16 8 27v4q-2 12 -8 18q-7 7 -20 10q9 2 15 7q5 5 7 13q1 1 1 4q0 6 -5 15q-13 20 -34.5 36t-47.5 31v-211q26 3 48.5 14.5t35.5 31.5z" />
    <glyph glyph-name="percent" unicode="%" horiz-adv-x="660" 
d="M271 559q39 -50 39 -118q0 -69 -39 -119q-20 -26 -48 -40.5t-58 -14.5t-58 14.5t-48 40.5q-39 50 -39 119q0 68 39 118q20 26 48 40.5t58 14.5t58 -14.5t48 -40.5zM172 301q34 6 53.5 43t19.5 97t-19.5 97t-53.5 43q-2 1 -7 1h-2q-5 0 -7 -1q-34 -6 -53.5 -43t-19.5 -97
t19.5 -97t53.5 -43q2 -1 4 -1q1 0 3 -1h2q2 1 4 1q1 0 3 1zM601 293q19 -24 29 -55t10 -64q0 -68 -39 -119q-20 -26 -48 -40t-58 -14t-58 14t-48 40q-39 51 -39 119q0 33 10 64t29 55q20 26 48 40t58 15q30 -1 58 -15t48 -40zM502 34q34 6 53.5 43t19.5 97t-19.5 97
t-53.5 43q-2 1 -7 1v1h-2v-1q-5 0 -7 -1q-34 -6 -53.5 -43t-19.5 -97t19.5 -97t53.5 -43q2 -1 7 -1h2q5 0 7 1zM379 307q-10 -3 -21 -10q-9 -6 -18.5 -17.5t-16.5 -31.5l-90 -248h-41l95 260q2 10 2 17v8q-3 9 -7 14q-5 5 -12 8q10 3 20 10q8 6 17.5 17t17.5 31l91 250h41
l-93 -254q-5 -14 -5 -24q0 -2 1 -4q1 -11 6 -17q5 -7 13 -9z" />
    <glyph glyph-name="ampersand" unicode="&#x26;" horiz-adv-x="553" 
d="M550 280q1 1 2 1q1 -5 1 -10q0 -23 -17 -39q-15 -14 -41 -14q-10 0 -21 2q1 -5 1.5 -11t0.5 -12q0 -35 -12.5 -67t-34.5 -58q-6 -8 -11 -13q-26 -27 -62.5 -42.5t-78.5 -15.5h-29q-42 0 -78.5 15.5t-62.5 42.5q-5 5 -11 13q-27 31 -39 72v1q0 1 -0.5 1.5t-0.5 1.5
q-8 26 -22 36q-7 5 -14 7q7 2 13 6q5 4 10.5 11t8.5 19q0 5 2 11v1q10 42 36.5 76.5t64.5 54.5q-4 2 -8 4.5t-7 4.5q-17 11 -32 34t-15 61q0 29 11 54.5t30 44.5t44.5 30t54.5 11q26 0 50 -9l4 -2h1q28 -13 44 -13q4 0 7 1q16 4 16 24h11v-166h-11v10q-1 4 -1 8q0 3 -1 7
q-2 21 -8 36.5t-14 27.5q-9 13 -24 24q-10 7 -23 12q-5 2 -10 3l-10 2h-2q-6 1 -11 1q-9 0 -16 -2q-47 -14 -62 -61q-6 -18 -6 -42v-1q0 -9 1 -14q5 -47 36 -72q13 -10 29 -14q10 -4 17 -4v-1q5 0 8 -0.5t6 -0.5v-16q-29 -3 -54 -16q-21 -11 -41 -34t-28 -64q-1 -5 -1 -9
q0 -10 4 -16q5 -9 12 -14q8 -6 19 -8q-11 -3 -19 -8q-7 -5 -12 -13q-3 -6 -3 -14q0 -4 1 -10q6 -35 20.5 -56.5t32.5 -34t36.5 -17t32.5 -5.5q7 0 11 1q15 1 30 6q2 1 5 1.5t5 1.5q0 1 1 1q37 15 58 54t21 96q0 5 -1 8v15q0 1 -1 2v6q0 2 -0.5 3t-0.5 2q0 3 -0.5 5.5
t-1.5 5.5l-80 20q-15 4 -25 4q-4 0 -7 -1q-11 -2 -14 -4l-2 -2q-1 5 -1 9q0 26 19 43q14 12 37 12q14 0 30 -4l60 -15l97 -24q15 -4 25 -4q4 0 7 1q11 2 14 4z" />
    <glyph glyph-name="quotesingle" unicode="'" 
d="M55 651q14 0 24 -10.5t10 -24.5v-9q0 -13 -5 -25q-7 -19 -21.5 -33t-31.5 -24v16q21 18 30 41h-5l-1 -1q-1 0 -1 1h-1q-14 0 -23.5 10t-9.5 24t10 24.5t25 10.5z" />
    <glyph glyph-name="parenleft" unicode="(" horiz-adv-x="339" 
d="M208 615q-30 -48 -44 -118.5t-17 -142.5v-5q0 -13 4 -20q5 -9 12 -14q8 -6 18 -8q-10 -3 -18 -8q-7 -5 -12 -14q-4 -7 -4 -20v-5q3 -72 17 -142t44 -118q20 -31 47 -49.5t64 -18.5v-15q-7 -1 -13 -1q-3 0 -5 1q-8 0 -13 1q-42 6 -76.5 27.5t-63.5 54.5q-40 48 -64 115
t-30 145q-2 16 -7.5 25t-11.5 14q-7 5 -15 8q8 2 15 8q6 5 11.5 14.5t7.5 25.5q6 78 30 145t64 115q29 33 63.5 54.5t76.5 27.5q5 1 13 2h5q6 0 13 -1v-16q-36 0 -63.5 -18t-47.5 -49z" />
    <glyph glyph-name="parenright" unicode=")" horiz-adv-x="339" 
d="M285 355q2 -16 7 -25.5t11 -14.5q7 -6 16 -8q-9 -3 -16 -8q-6 -5 -11 -14t-7 -25q-6 -78 -30.5 -145t-63.5 -115q-29 -33 -63.5 -54.5t-76.5 -27.5q-5 -1 -13 -1q-3 -1 -6 -1q-5 0 -12 1v15q36 0 63.5 18.5t47.5 49.5q30 48 44 118t17 142v5q0 13 -4 20q-5 9 -12 14
q-8 5 -18 8q10 2 18 8q7 5 12 14q4 7 4 20v5q-2 36 -6 72.5t-11.5 70t-18.5 64t-26 54.5q-20 31 -47 49t-63 18v16q7 1 12 1h6q8 -1 13 -2q42 -6 76.5 -27.5t62.5 -54.5q40 -48 64.5 -115t30.5 -145z" />
    <glyph glyph-name="asterisk" unicode="*" horiz-adv-x="310" 
d="M264 389l-63 -63h89v-38h-89l63 -63l-27 -27l-63 63v-89h-38v89l-63 -63l-27 27l63 63h-89v38h89l-63 63l27 27l63 -63v89h38v-89l63 63z" />
    <glyph glyph-name="plus" unicode="+" horiz-adv-x="310" 
d="M174 408v-82h116v-38h-116v-81h-38v81h-116v38h116v82h38z" />
    <glyph glyph-name="comma" unicode="," 
d="M55 70q14 0 24 -10.5t10 -24.5v-9q0 -13 -5 -26q-7 -18 -21.5 -32t-31.5 -24v16q20 16 30 40v1q-1 0 -2 -0.5t-3 -0.5h-3q-14 1 -23.5 11t-9.5 24t10 24.5t25 10.5z" />
    <glyph glyph-name="hyphen" unicode="-" horiz-adv-x="310" 
d="M20 288v38h270v-38h-270z" />
    <glyph glyph-name="period" unicode="." 
d="M55 70q14 0 24 -10.5t10 -24.5t-9.5 -24t-23.5 -11h-3q-14 1 -23.5 11t-9.5 24t10 24.5t25 10.5z" />
    <glyph glyph-name="slash" unicode="/" horiz-adv-x="285" 
d="M285 615l-92 -251q-6 -16 -6 -26q0 -2 1 -4q1 -11 6 -17q5 -7 13 -10q-10 -3 -21 -10q-9 -6 -18.5 -17.5t-16.5 -31.5l-90 -248h-41l95 260q2 10 2 17v8q-3 9 -7 14q-5 5 -12 8q10 3 20 10q8 6 17.5 17.5t17.5 31.5l91 249h41z" />
    <glyph glyph-name="zero" unicode="0" horiz-adv-x="467" 
d="M392 517q26 -43 40.5 -96.5t14.5 -112.5q0 -60 -14.5 -113.5t-40.5 -96.5q-27 -43 -65 -69q-40 -28 -87 -28h-1q-48 0 -88 28q-36 24 -65 69q-21 34 -34 75.5t-18 86.5q-2 16 -7.5 25t-11.5 14q-7 5 -15 8q8 2 15 8q6 5 11.5 14.5t7.5 25.5q5 45 18 86.5t34 75.5
q14 22 30 39.5t35 29.5q41 28 85 29h6q45 -2 85 -29q37 -24 65 -69zM253 36q49 13 77.5 84t28.5 188q0 116 -28.5 187.5t-77.5 83.5q-4 2 -7 2t-6 1h-1q-4 -1 -7 -1q-4 0 -7 -2q-45 -11 -72.5 -69.5t-32.5 -154.5v-5q0 -7 2 -14q2 -10 8 -15.5t11 -8.5q6 -4 13 -5
q-7 -1 -13 -5q-5 -3 -11 -8.5t-8 -14.5q-2 -5 -2 -9v-10q5 -96 32.5 -154.5t72.5 -69.5q8 -2 14 -2h1q3 0 6 0.5t7 1.5z" />
    <glyph glyph-name="one" unicode="1" horiz-adv-x="278" 
d="M183 89q0 -11 4.5 -24.5t13.5 -25t23 -19.5t34 -8v-11h-238v11q19 0 33 8t23 19.5t13.5 25t4.5 24.5v160q0 20 -5.5 31t-11.5 17q-8 7 -17 10q9 3 17 10q6 6 11.5 17.5t5.5 31.5v126q0 11 -4.5 23t-13.5 20t-23 11h-8q-11 0 -25 -5v11l163 63v-249q0 -20 5 -31.5
t12 -17.5q8 -7 18 -10q-10 -3 -18 -10q-7 -6 -12 -17t-5 -31v-160z" />
    <glyph glyph-name="two" unicode="2" horiz-adv-x="376" 
d="M288 93q20 5 38 22t18 49h12v-164h-284v1h-52v32q3 5 6 8.5t6 7.5q45 56 83 105t67 95q11 20 12 31v5q0 8 -2 12q-4 7 -13 10q11 1 22 7q10 5 20.5 17t20.5 35q19 53 19 108q-2 45 -20 75.5t-57 30.5q-29 -2 -49.5 -14t-33.5 -30t-19.5 -40t-6.5 -44v-3h-11v166h11
q0 -25 24 -25h3q18 2 39.5 11.5t47.5 11.5q6 1 13 1q9 0 18 -2q47 -10 80 -42q7 -8 15 -18l6 -9q4 -6 5 -10q19 -38 19 -82q0 -27 -7 -57q-3 -12 -8 -28q-8 -20 -8 -31q0 -12 2 -18q3 -7 8 -10q-11 -4 -23 -11q-11 -6 -25 -17.5t-31 -29.5q-27 -31 -64.5 -69t-86.5 -89
q-1 -1 -1 -2h165q1 0 1.5 0.5t1.5 0.5h7q2 0 3 1q4 0 6 1h1q1 0 2 1z" />
    <glyph glyph-name="three" unicode="3" horiz-adv-x="392" 
d="M337 234q2 -12 7.5 -19.5t11.5 -11.5q7 -4 16 -6q-7 -3 -14 -10q-6 -6 -13.5 -18t-13.5 -31q-5 -18 -14.5 -34.5t-21.5 -31.5q-3 -3 -5.5 -6.5t-6.5 -6.5q-26 -27 -62.5 -42.5t-78.5 -15.5h-6q-5 0 -11 0.5t-11 1.5t-8.5 1.5t-8.5 1.5h-2q-15 3 -28.5 7.5t-24.5 9.5
q-12 5 -22 10v15q14 -4 30 -8q14 -3 31 -5t36 -2h3q13 0 31.5 3.5t37 15t34.5 32t24 54.5q3 10 3 18t-3 14q-5 11 -13 17q-9 7 -22 10q12 3 21 10q8 6 12 18q2 5 2 13t-2 18q-11 35 -30.5 53.5t-39.5 28.5q-23 11 -49 14v16q3 0 6.5 0.5t7.5 0.5v1q5 0 9 1t9 3q16 5 28 14
q31 23 37 72v15q0 24 -6 42q-15 47 -62 61q-7 2 -15 2q-5 0 -11 -1h-3l-10 -2t-10 -3q-13 -5 -23 -12q-14 -11 -24 -24q-8 -12 -14 -27.5t-8 -36.5q-1 -5 -1 -15v-10h-12v166h12q0 -20 16 -24q3 -1 6 -1q16 0 44 13h2l4 2q22 9 50 9q29 0 54.5 -11t44.5 -30t30 -44.5
t11 -54.5q0 -38 -15.5 -61t-31.5 -34q-4 -2 -7.5 -4.5t-8.5 -4.5q40 -21 67 -56t35 -80z" />
    <glyph glyph-name="four" unicode="4" horiz-adv-x="445" 
d="M350 89q0 -11 4.5 -24.5t13.5 -25t23 -19.5t34 -8v-11h-238v11q19 0 33 8t23 19.5t13.5 25t4.5 24.5v78h-241v89h1l239 359h90v-359h52v-89h-52v-78zM261 547l-195 -291h195v291z" />
    <glyph glyph-name="five" unicode="5" horiz-adv-x="389" 
d="M324 350q10 -14 20.5 -25.5t24.5 -17.5q-4 -3 -8 -8q-3 -5 -5 -13q-1 -4 -1 -9q0 -6 1 -13q1 -1 1 -3v-1q3 -18 3 -35q0 -45 -15.5 -85t-44.5 -72t-67 -49.5t-80 -18.5h-1q-33 1 -64 11.5t-57 30.5l15 16q14 -9 32 -15q14 -5 34 -9q11 -2 22 -2q9 0 18 1h1q15 2 31 8.5
t31 19.5q27 23 42 65t15 99q0 9 -0.5 18t-1.5 17q-3 20 -15 32q-10 9 -20 12q-5 2 -10 3q2 1 5 2q4 1 10 6q5 5 8 14v5q0 8 -6 21q-11 19 -26 31q-15 14 -31 21t-32 9h-1q-5 1 -9 1h-10q-19 0 -37 -5t-31 -12q-17 -8 -28.5 -16.5t-15.5 -11.5q-1 -1 -1 -2q0 3 1 7t2 10.5
t3 15.5q0 1 0.5 2t0.5 2l2 12t2 14h1l31 182h243v-164h-11q0 33 -18 49.5t-38 22.5h-3q-2 1 -6 1h-1q-1 1 -3 1h-7q-1 1 -2 1h-131l-16 -96q40 19 82 19h1q42 -1 80 -18t67 -49q12 -14 24 -32z" />
    <glyph glyph-name="six" unicode="6" horiz-adv-x="497" 
d="M417 382q25 -28 40 -62q20 -45 20 -95q0 -92 -60 -157q-29 -32 -67 -49.5t-80 -18.5h-1q-42 1 -80.5 18.5t-67.5 49.5q-10 11 -18.5 23t-15.5 26q-35 63 -40 143q-1 16 -5 25t-9 14q-6 5 -13 8q7 2 13 6q5 4 10.5 11t8.5 19q8 51 29 96.5t53 82.5q38 45 84.5 68t96.5 25
h8q32 -2 62 -12l-6 -15q-3 0 -19 1h-4q-16 0 -37 -4h-1q-21 -5 -41 -12q-5 -2 -8.5 -3.5t-7.5 -3.5q-36 -19 -63 -58.5t-44 -96.5q5 3 9.5 6t9.5 6q44 26 96 26h1q10 0 19 -1t19 -3q31 -7 58.5 -22.5t50.5 -40.5zM283 39q49 8 77.5 57t28.5 129q0 70 -22.5 116.5t-62.5 62.5
q-5 2 -10.5 3.5t-10.5 3.5q-4 0 -7 0.5t-6 0.5h-1q-4 0 -7.5 -0.5t-6.5 -0.5q-49 -9 -77 -57q-6 -12 -6 -20q0 -4 1 -6q3 -9 8 -14q3 -3 9 -5q3 -1 5 -2q-5 -1 -9 -3t-9 -4t-10 -7t-10 -13t-7 -19q-1 -9 -1 -18v-33q0 -8 1 -16q5 -66 32.5 -106.5t72.5 -48.5q8 -2 14 -2h6
q2 1 4 1t4 1z" />
    <glyph glyph-name="seven" unicode="7" horiz-adv-x="411" 
d="M411 615l-92 -251q-6 -16 -6 -26q0 -2 1 -4q1 -11 6 -17q5 -7 13 -10q-10 -3 -20 -9q-8 -5 -17 -16t-17 -28l-92 -254h-95l90 248q7 19 7 30v2q-1 11 -6 17q-5 7 -14 10q10 3 21 10q9 6 18 17.5t17 31.5l57 155q5 16 5 29v8q-2 16 -28 18h-156q-15 0 -30 -9.5t-27.5 -25
t-21.5 -34.5t-12 -38q-1 -1 -1 -4h-11l21 150h390z" />
    <glyph glyph-name="eight" unicode="8" horiz-adv-x="455" 
d="M372 327q31 -27 47 -62.5t16 -74.5q0 -38 -16 -73.5t-47 -62.5q-29 -26 -66 -39.5t-78 -13.5h-1q-41 0 -78 13.5t-66 39.5q-31 27 -47 62.5t-16 73.5q0 39 16 74.5t47 62.5q30 25 64 38q-29 19 -46.5 49t-17.5 66q0 50 32.5 87t81.5 48q15 3 31 3t31 -3q49 -11 81.5 -48
t32.5 -87q0 -36 -17.5 -66t-46.5 -49q33 -13 63 -38zM220 581q-28 -5 -44 -31.5t-16 -69.5q0 -41 14 -66.5t38 -33.5h32q25 8 39 33.5t14 66.5q0 43 -16.5 69.5t-44.5 31.5q-2 1 -8 1q-5 0 -8 -1zM346 193q-1 63 -28.5 102t-75.5 46q-2 0 -3.5 0.5t-3.5 0.5h-14
q-2 0 -4 -0.5t-4 -0.5q-48 -7 -76 -46.5t-28 -104.5q0 -64 28 -103.5t76 -46.5q5 -1 14 -1h8q3 0 7 1q48 7 75.5 46t28.5 102v5z" />
    <glyph glyph-name="nine" unicode="9" horiz-adv-x="496" 
d="M401 548q20 -22 34 -49q23 -42 34 -91q7 -34 7 -70q0 -17 -2 -34q-5 -60 -27 -114t-59 -97q-38 -45 -85.5 -68.5t-98.5 -23.5h-1q-32 0 -65 11l5 16q3 -1 20 -1q2 -1 3 -1q16 0 37 5h1q10 2 20.5 4.5t21.5 7.5q4 2 7.5 3.5t7.5 3.5q36 19 63.5 58.5t43.5 96.5
q-9 -8 -18 -12q-46 -26 -96 -26h-1q-22 0 -38 4q-64 12 -110 63q-3 4 -6 7.5t-6 6.5v1l-9 12q-11 13 -19 22q-10 9 -18 14t-14 7q-7 3 -13 3q9 2 15 9q5 6 10 17q3 8 3 19q0 4 -1 10v4q-1 7 -1 13v12q0 45 15 85t44 72q55 59 132 67h33q37 -4 71 -21t60 -46zM268 205
q49 9 77.5 58t28.5 128q0 8 -0.5 15.5t-0.5 15.5q-6 66 -33.5 106.5t-71.5 48.5q-10 2 -14 2h-1q-3 0 -4 -1h-2q-5 0 -8 -1q-49 -8 -77.5 -57t-28.5 -129q0 -7 0.5 -13t0.5 -12q2 -18 7 -29t12 -17q6 -7 14 -11q4 -2 6 -2q-1 0 -3 -1l-6 -3q-6 -5 -9 -14q-1 -3 -1 -5
q0 -9 9 -23l1 -1q0 -1 1 -2v-1h1q0 -1 0.5 -1.5t0.5 -1.5l2 -2v-1q1 0 1 -1l1 -1q18 -25 47 -38l21 -6q5 -1 14 -1h8q3 0 7 1z" />
    <glyph glyph-name="colon" unicode=":" 
d="M55 215q14 0 24 -10t10 -24t-10 -24.5t-24 -10.5q-15 0 -25 10.5t-10 24.5t10 24t25 10zM55 450q-15 0 -25 10.5t-10 24.5t10 24.5t25 10.5q14 0 24 -10.5t10 -24.5t-10 -24.5t-24 -10.5z" />
    <glyph glyph-name="semicolon" unicode=";" 
d="M55 215q14 0 24 -10t10 -24v-10q-2 -28 -18.5 -48t-39.5 -33v16q10 8 18 18.5t12 22.5q-2 -1 -6 -1q-15 0 -25 10.5t-10 24.5t10 24t25 10zM55 450q-15 0 -25 10.5t-10 24.5t10 24.5t25 10.5q14 0 24 -10.5t10 -24.5t-10 -24.5t-24 -10.5z" />
    <glyph glyph-name="less" unicode="&#x3c;" horiz-adv-x="176" 
d="M156 389l-82 -82l82 -82l-27 -27l-109 109l109 109z" />
    <glyph glyph-name="equal" unicode="=" horiz-adv-x="310" 
d="M20 328v38h270v-38h-270zM20 248v38h270v-38h-270z" />
    <glyph glyph-name="greater" unicode="&#x3e;" horiz-adv-x="176" 
d="M20 389l27 27l109 -109l-109 -109l-27 27l82 82z" />
    <glyph glyph-name="question" unicode="?" horiz-adv-x="311" 
d="M119 71q14 0 24.5 -10.5t10.5 -24.5t-10.5 -24t-24.5 -10t-24 10t-10 24t10 24.5t24 10.5zM192 605q17 -5 31.5 -13.5t26.5 -21.5q17 -19 26 -39t12 -37q3 -13 3 -25q0 -7 -1 -13q-2 -31 -15 -56.5t-30 -48.5v-1q-2 -2 -2.5 -3t-2.5 -2q-11 -15 -12 -26v-3q0 -9 7 -9
q-9 -2 -20 -7q-9 -5 -20 -14t-22 -23q-19 -27 -32 -57.5t-13 -69.5v-8h-18v8q0 32 6 60t16 52q7 20 7 32q0 11 -2 17q-3 7 -9 10q9 2 19 8q19 10 34 38q12 25 20 50.5t8 54.5v1q0 22 -4 38q-3 15 -11 28q0 2 -2 4v1q-1 0 -1 1l-1 1q-19 29 -49 40q-18 5 -34 5q-13 0 -25 -3
l-9 -3q-14 -6 -24 -15t-18 -20l-11 12q6 14 20 26.5t32 21.5q7 4 14 7.5t15 5.5q2 1 5 1q2 0 4 1t5 1q2 0 4 1q2 0 5 0.5t5 0.5h7q1 1 3 1h2q11 -1 23 -3t28 -7z" />
    <glyph glyph-name="at" unicode="@" horiz-adv-x="809" 
d="M657 615q63 -56 97.5 -136t34.5 -172q0 -91 -34.5 -171t-97.5 -136q-46 -40 -105.5 -63t-131.5 -23t-131 23t-106 63q-54 48 -87.5 115t-41.5 145q-2 16 -7.5 25t-11.5 14q-7 5 -15 8q8 2 15 8q6 5 11.5 14.5t7.5 25.5q8 78 41.5 145t88.5 115q46 40 105 63t131 23
t131 -23t106 -63zM620 124q17 3 35.5 15.5t35.5 38.5q18 63 18 129q0 55 -12.5 109.5t-37.5 102.5q-2 5 -5 9.5t-6 9.5q-25 43 -64 77q-32 27 -73 42.5t-91 15.5t-90.5 -15.5t-72.5 -42.5q-55 -46 -85 -115.5t-38 -144.5q2 -16 7.5 -25.5t11.5 -14.5q7 -6 15 -8
q-8 -3 -15 -8q-6 -5 -11.5 -14t-7.5 -25q8 -75 38 -144.5t84 -115.5q32 -27 73 -42.5t91 -15.5t91 15.5t73 42.5q26 21 45.5 48t34.5 58q-15 -8 -31 -13q-14 -5 -28 -5h-5q-12 0 -25 5q-19 9 -33 29q-2 3 -4.5 6.5t-4.5 7.5q-11 22 -14 47v2q-11 -21 -27.5 -37.5
t-27.5 -25.5q-7 -5 -11 -8t-5 -4h-1q-23 -16 -46.5 -22t-44.5 -7h-11q-21 1 -42 7t-41 22q-17 12 -26 25q-15 18 -22 37q-2 5 -3.5 10.5t-3.5 10.5q0 2 -1 3q-7 27 -7 54q0 5 1 11q1 32 11 63q0 1 1 1v1q0 1 2 5l2 6l2 6q15 35 36.5 61.5t46.5 44t52 26.5t53 9
q28 0 54.5 -10.5t47.5 -30.5l3 22v2q0 3 -3 8q-5 6 -17 6h-18l3 15h118l-30 -214q-4 -27 -4 -55t5.5 -51t18.5 -37.5t36 -14.5zM486 284q2 21 2 38v12q-1 21 -5 38t-13 33t-25 27q-11 7 -22.5 9.5t-21.5 3.5q-11 -1 -22.5 -3.5t-24.5 -9.5q-20 -11 -33.5 -27t-22.5 -33
q-17 -35 -26 -88q-3 -24 -3 -43q0 -22 4 -39q7 -31 20.5 -48.5t30.5 -23.5t32 -6t34 6t37.5 23.5t34 48.5t24.5 82z" />
    <glyph glyph-name="A" unicode="A" horiz-adv-x="494" 
d="M445 -8q4 -17 9.5 -32t13 -26t18.5 -17.5t28 -6.5h-221q33 0 46 23q8 14 8 33q0 10 -3 22l-6 23l-2 5l-19 73q-4 17 -9.5 31t-12.5 25q-1 1 -1 2l-1 1q-23 38 -51 49q-13 5 -23 5q-11 0 -19 -7h-1q0 -1 -1 -1q-7 -7 -7 -15l-1 -1q0 -7 5 -12q-13 2 -17 11q-4 5 -4 12
q0 2 1 5q-1 -1 -2 -1.5t-2 -2.5q-5 -3 -7 -7.5t-4 -9.5l-3 -11v-7q0 -10 4 -19q6 -13 20 -18q8 -4 15 -4q4 0 7 1q10 2 17.5 8t11.5 15q3 6 3 13v4q-1 9 -7 16q16 -5 24.5 -17t9.5 -26v-2q0 -13 -8 -26q-9 -14 -26 -23q-4 -2 -7 -3t-7 -3h-4q-14 -3 -27 -3q-25 0 -43 12
l-14 -64l-5 -24q-3 -13 -3 -24q0 -19 9 -34q13 -24 47 -24h-174q27 0 43 15.5t24 40.5q-30 23 -48 57t-18 75q0 30 10 56.5t27.5 47.5t41.5 36t52 21l80 374v6q0 14 -8 25q-10 12 -29 12h93l171 -660zM104 128q-5 15 -5 31q0 10 2 20q5 25 22 42q-47 -14 -76.5 -53.5
t-29.5 -88.5q0 -32 13.5 -61.5t37.5 -50.5l6 21zM179 263q30 -3 57.5 -15.5t48.5 -34.5l-63 245z" />
    <glyph glyph-name="B" unicode="B" horiz-adv-x="428" 
d="M418 77q0 -80 -27.5 -133.5t-70.5 -84t-94 -41.5q-35 -8 -68 -8q-15 0 -30 2q-19 2 -34.5 6.5t-29.5 9.5q-1 1 -2 1t-2 1q-6 2 -9 4l-6 3q-1 0 -1 1q-27 14 -44 34q-17 18 -24 36.5t-10 34.5q-3 12 -3 24q0 5 1 11q0 -38 21 -68.5t53 -45.5q1 -1 2 -1l1 -1q3 -2 6.5 -3
t6.5 -3q16 -8 36 -13q25 -6 52 -6q8 1 14.5 1.5t13.5 2.5q19 3 37 12q4 2 7.5 4t7.5 4q5 3 9.5 6t9.5 7q25 21 43 55t26 84q5 22 5 42v180q-4 37 -16.5 59t-27.5 31q-13 7 -25 7h-7q-17 -3 -29 -15q-4 -3 -7 -6.5t-6 -7.5q-14 -21 -18 -41t-4 -24q6 16 22 19h5q23 0 28 -22
q0 -2 0.5 -3t0.5 -3v-2q-1 -11 -9.5 -19t-19.5 -8q-17 0 -25 15q-1 2 -1.5 4t-1.5 4v2q-4 14 -4 29t4 32q2 13 7 24t11 22q2 2 2.5 4.5t2.5 4.5q1 1 1.5 2t2.5 3q5 8 10 15.5t11 15.5l2 4t3 4l6 9q9 15 18 33q11 24 16 49.5t5 51.5t-6 48.5t-17 40.5q-16 26 -35 35t-40 9
q-13 0 -13 -13v-656q0 -34 18 -58t52 -24h-244q34 0 52.5 24t18.5 58v255q-1 20 -6 31.5t-10 18.5q-7 8 -15 11q8 3 15 11q5 7 10 18.5t6 31.5v255q0 22 -15 37t-37 15h203q22 -1 49.5 -8.5t51.5 -24t40.5 -44.5t16.5 -71q0 -52 -18 -82.5t-43 -51.5q23 -3 43 -16t35 -34.5
t24 -49.5t10 -59v-158z" />
    <glyph glyph-name="C" unicode="C" horiz-adv-x="392" 
d="M421 -174q-101 1 -172.5 34t-119 83.5t-73.5 111t-36 117.5q-5 29 -6 56q-3 26 -10 42t-15 24q-9 10 -19 13q10 4 19 14q8 8 15.5 23.5t12.5 41.5q9 57 27 106.5t44 87.5t57.5 62t67.5 31q5 1 9 1.5t9 0.5h8q34 0 56 -11t40 -22q1 -1 2 -1.5t2 -1.5q11 -7 21 -12t21 -6
q11 0 19 4q4 2 7 3q12 7 20.5 15.5t11.5 13.5l-104 -145l-183 -256q-4 -6 -4 -12v-3q1 -7 8 -12q-5 6 -5 13q0 6 5 13q6 10 17 10q3 0 6 -1q2 -1 3.5 -1.5t3.5 -1.5q8 -7 10 -16v-3q0 -8 -5 -15q-8 -12 -24 -12q-10 0 -17 6q-11 7 -12 19v3q0 10 6 19l36 51q33 46 55.5 82.5
t37 66t20.5 53.5t6 44q0 35 -13.5 64t-40.5 36q-2 0 -3 0.5t-3 0.5h-8q-21 0 -40 -21.5t-34 -59.5t-26 -90t-15 -113v-5q0 -18 6 -29q7 -14 15 -22q10 -9 23 -13q-10 -3 -19 -10q-8 -6 -15 -17t-9 -29q-1 -5 -1 -15v-8q0 -29 7.5 -70t26 -85.5t50.5 -87.5t81 -75
q8 -6 17.5 -11.5t19.5 -10.5h1q29 -14 62.5 -22t74.5 -10q72 0 139.5 25.5t125.5 70.5q-57 -59 -132 -92.5t-162 -33.5h-6z" />
    <glyph glyph-name="D" unicode="D" horiz-adv-x="448" 
d="M418 75q0 -80 -28 -132.5t-71 -83t-94 -41.5q-35 -8 -68 -8q-15 0 -29 2q-19 2 -34.5 6.5t-29.5 9.5q-1 1 -2 1t-2 1q-6 2 -9 4l-6 3q-1 0 -1 1q-5 2 -8.5 4.5t-7.5 4.5q-11 7 -21 17q-2 2 -3.5 4t-3.5 4q-17 18 -24 36.5t-10 34.5q-3 12 -3 24q0 5 1 11q0 -38 21 -68.5
t53 -45.5q1 -1 2 -1l1 -1q3 -2 6.5 -3t6.5 -3q16 -8 36 -13q25 -6 52 -6q8 1 14.5 1.5t13.5 2.5q19 3 37 12q4 2 7.5 4t7.5 4q5 3 9.5 6t9.5 7q25 21 43 55t26 84q3 11 4 23.5t1 26.5v445q0 29 -9 54.5t-23 46t-32.5 34t-36.5 17.5h-17q-11 0 -13 -13v-631h1v-24
q0 -34 18 -58t52 -24h-244q34 0 52.5 24t18.5 58v251q0 21 -5 33.5t-11 19.5q-7 8 -15 12q8 3 15 11q6 7 11 19.5t5 33.5v251q0 22 -15 37t-37 15h189q26 0 60.5 -7t65 -26t52 -51t21.5 -83v-433z" />
    <glyph glyph-name="E" unicode="E" horiz-adv-x="378" 
d="M340 676q58 0 102.5 13.5t74.5 30.5q35 19 61 44q-24 -34 -59.5 -54t-73 -39t-73 -44t-61.5 -69q-28 -50 -45.5 -118.5t-17.5 -154.5q-3 8 -5.5 14t-5.5 12q-12 23 -28.5 36.5t-34.5 21.5v-362q0 -35 18 -58.5t52 -23.5h22q-20 26 -30.5 58.5t-10.5 67.5v11q1 1 1 3v5
q2 28 11 51.5t22 42.5t29 34t33 26q39 26 86 42q-22 -16 -40 -42q-15 -22 -27.5 -55.5t-12.5 -79.5q0 -37 13 -69.5t36 -57t53 -38.5t65 -14h-494q34 0 52.5 24t18.5 58v373q-29 -15 -40.5 -31.5t-12.5 -31.5q4 6 12 6q7 0 11 -4.5t4 -10.5q0 -15 -15 -15q-4 0 -8 2
q-1 0 -1 1q-8 6 -8 15q0 8 2 16q0 1 0.5 1.5t0.5 1.5t2 5q1 1 1 3q6 13 18 25q2 2 4 3.5t4 3.5l-1 -1q0 1 1 1q5 5 11.5 9.5t14.5 9.5v250q0 22 -15 37t-37 15h321zM292 558q0 25 -9 44t-24 32t-34 19.5t-38 7.5q-13 0 -13 -14v-230q57 23 81.5 51.5t31.5 57.5q2 8 3 15
l2 14v3zM542 728q9 8 17 15.5t16 15.5q-14 -17 -33 -31z" />
    <glyph glyph-name="F" unicode="F" horiz-adv-x="408" 
d="M370 676q58 0 102.5 13.5t74.5 30.5q35 19 61 44q-24 -34 -59.5 -54t-73 -39t-73 -44.5t-61.5 -69.5q-28 -50 -45.5 -118t-17.5 -154q0 -20 1.5 -39.5t3.5 -38.5q0 -7 1 -10q3 -26 9 -51.5t12.5 -45.5t13 -33.5t10.5 -14.5q5 12 17 12q8 0 13 -5t5 -13t-5 -13t-13 -5h-6
q-2 1 -5 2t-6 3l-6 6q-15 20 -29 67.5t-25 107.5q-17 80 -39 117t-56 44v-383q0 -34 18 -58t52 -24h-244q34 0 52.5 24t18.5 58v353q-6 -5 -10 -9.5t-7 -8.5q-4 -4 -5 -8q1 4 4 9q2 5 6 10.5t12 12.5v273q0 22 -15 37t-37 15h351zM322 558q0 25 -9.5 44.5t-25 32.5t-35 19.5
t-39.5 6.5h-26q-13 0 -13 -13v-242q2 1 5 2l6 2q67 23 96 54t37 62q2 8 3 15t1 14v3zM573 728q8 7 16 14.5t16 16.5q-8 -8 -16 -15.5t-16 -15.5z" />
    <glyph glyph-name="G" unicode="G" horiz-adv-x="476" 
d="M441 25q7 -42 23 -80t45 -65h1q0 -1 1 -1q-14 10 -26.5 18t-23.5 13l-1 1q-1 0 -2 1q-28 13 -63 13t-66 -8q-5 -2 -9.5 -2.5t-9.5 -1.5q-17 -3 -33 -3q-27 0 -53 9h1q-37 13 -69 44.5t-56 77t-38.5 102.5t-17.5 122q-3 26 -10 41.5t-15 23.5q-9 10 -19 14q11 4 22 13
q9 8 18 22t15 37q10 52 29 96t43.5 78t55 55.5t63.5 27.5q5 2 9 2t9 1h8q34 0 56 -11t40 -22q1 -1 2 -1.5t2 -1.5q11 -8 21 -12.5t21 -6.5q5 0 9.5 1t9.5 3q4 2 7 4q12 6 20.5 15t11.5 14l-108 -150l-116 -163l2 2l-65 -90q-4 -7 -4 -13v-2q1 -6 8 -13q-5 7 -5 13q0 7 5 14
q6 9 17 9q3 0 6 -1q4 0 7 -3q8 -5 10 -15v-3q0 -8 -5 -15q-8 -12 -24 -12q-11 0 -17 5q-11 9 -12 20v5q0 8 5 17l37 51q33 46 55.5 82.5t37 66t20.5 53t6 43.5q0 35 -13.5 64t-40.5 36q-2 1 -5 1q-1 0 -1 1h-8q-19 0 -36.5 -18t-32 -50.5t-25.5 -77.5t-17 -98q-1 -6 -1 -12
q0 -15 5 -25q5 -14 13 -22q9 -10 20 -14q-11 -3 -21 -11q-8 -7 -15 -20t-8 -35q1 -74 10.5 -138t25.5 -112t37 -75.5t45 -27.5q16 0 31 9l1 1l1 1q24 15 40 37q20 26 29 57q8 28 8 57v6q0 50 -23.5 81t-66.5 55q-12 6 -22.5 13l-19.5 13q16 -7 34 -12q16 -5 36.5 -9t43.5 -4
h4q34 0 65.5 8t58.5 21q-13 -19 -24 -45q-9 -23 -16 -54.5t-7 -73.5q0 -15 1 -30t3 -31z" />
    <glyph glyph-name="H" unicode="H" horiz-adv-x="507" 
d="M436 -8q0 -34 18.5 -58t52.5 -24h-244q34 0 52.5 24t18.5 58v193q-5 9 -19.5 30.5t-36 47.5t-50 53t-62.5 47v-371q0 -34 18.5 -58t52.5 -24h-244q34 0 52.5 24t18.5 58v402q-18 0 -36.5 -4t-34.5 -12.5t-27.5 -21.5t-14.5 -31q-2 -4 -2 -7v-3q0 -23 12.5 -41t32.5 -18
t29 10q6 8 6 17v4q0 4 -1 6q-5 9 -15 9q-6 0 -11 -4.5t-5 -11.5q0 -2 0.5 -3t0.5 -3l2 -4q-7 4 -11.5 10.5t-4.5 15.5v1q0 3 1 4v1q3 11 14 16q7 4 15 4q3 0 6 -1q2 -1 4 -1q1 0 3 -1q4 -1 8 -4q7 -5 12.5 -12t7.5 -19v-3l1 -2v-3q0 -24 -17.5 -41t-42.5 -17q-20 0 -34 10
q-2 1 -5 4q-17 13 -26 30.5t-10 36.5q-1 5 -1 10q0 14 4 28q4 19 15 36q-51 -32 -88 -36q-11 -2 -21 -2q-23 0 -37 7q-21 10 -24 30q-1 3 -1 6q0 16 13 30q0 -23 18 -34q16 -11 41 -11h4q16 0 35.5 5.5t38.5 13t34.5 16t24.5 14.5l1 1q2 1 3 2t3 2q15 8 27 11q23 5 40 5h13
v185q0 22 -15 37t-37 15h206q-20 0 -35 -13.5t-17 -33.5v-228q33 -21 61 -49.5t50 -55.5t37 -48.5t20 -29.5v406q0 22 -15.5 37t-36.5 15h206q-20 0 -35 -13.5t-17 -33.5v-637z" />
    <glyph glyph-name="I" unicode="I" horiz-adv-x="225" 
d="M174 -48q0 -29 13 -52.5t34.5 -40t48.5 -25t54 -8.5q-42 0 -70 6t-49.5 15.5t-40 20.5t-40.5 20.5t-51.5 15.5t-72.5 6q34 0 52.5 24t18.5 58v632q0 22 -15 37t-37 15h206q-20 0 -34.5 -13.5t-16.5 -33.5v-677z" />
    <glyph glyph-name="J" unicode="J" horiz-adv-x="522" 
d="M522 676q-20 0 -35 -13.5t-17 -33.5v-551q0 -52 -19.5 -98t-53.5 -80t-79.5 -54t-97.5 -20q-46 0 -86 17.5t-70 47.5t-47 70t-17 85v3q2 55 33.5 97.5t81.5 59.5q1 0 2 0.5t3 0.5q30 9 58 9q20 0 40 -4q45 -12 76 -40.5t44 -67.5q6 -20 6 -39q0 -20 -7 -40
q-13 -39 -39 -61t-55 -26q-7 -2 -15 -2q-21 0 -41 10q-28 13 -45 45q16 -9 37 -9q18 0 34 11.5t25.5 29.5t10.5 40v2q0 21 -13 42q-12 20 -33 29q-19 8 -39 8h-5q-23 -1 -44 -12t-34 -30q-2 -3 -3 -5.5t-3 -5.5q11 5 22 5q8 0 17 -3q19 -6 26 -32q-8 6 -18 6q-4 0 -7 -1
q-15 -3 -26 -16t-16 -33q-2 -8 -2 -16q0 -15 6 -32q10 -23 25.5 -42.5t34.5 -33.5t40.5 -22t42.5 -8q25 0 51 10t47.5 34.5t35.5 66t14 104.5v546q0 22 -15.5 37t-36.5 15h206z" />
    <glyph glyph-name="K" unicode="K" horiz-adv-x="383" 
d="M690 -129q0 -29 -20 -53t-55 -36q-30 -12 -61 -12h-5q-40 2 -80 21q-47 23 -85.5 61t-69.5 84t-54 95t-39 93q-17 44 -28 84t-19 72v-288q0 -34 18 -58t52 -24h-244q34 0 52.5 24t18.5 58v632q0 22 -15 37t-37 15h224q-29 0 -49 -20t-20 -49v-226l104 205l11 20
q8 17 8 31q0 10 -4 19q-10 20 -39 20h163q-29 0 -47.5 -20.5t-34.5 -49.5l-10 -20l-125 -244q5 0 9.5 -0.5t9.5 -0.5q37 0 85 17q-16 -25 -16 -72v-6q2 -62 29 -144q21 -65 52.5 -126.5t66.5 -111.5q3 -3 5.5 -6.5t4.5 -6.5q42 -54 87 -77q31 -17 57 -17q11 0 21 3
q6 2 12 4.5t11 6.5q8 6 11 17q0 2 0.5 4t0.5 4q-2 17 -14 19q5 2 9 2q6 0 11 -4q7 -7 9 -17v-1q1 0 1 1q1 1 1.5 2t1.5 2q4 8 4 18v4q-1 12 -6.5 22.5t-14.5 17t-21 6.5q-13 0 -22.5 -6t-14.5 -14.5t-6 -18.5v-3q0 -8 4 -15q2 -5 5.5 -8t7.5 -6h-4q-13 0 -22 6q-12 6 -19 17
q-1 1 -1 2l-1 1q-3 5 -4.5 10.5t-2.5 10.5v1q-1 4 -1 8q0 6 3 14q3 12 11 22.5t22.5 18t35.5 7.5q8 0 12 -1q13 -3 26 -11q3 -2 9 -8q11 -11 18 -26t7 -32z" />
    <glyph glyph-name="L" unicode="L" horiz-adv-x="401" 
d="M342 79q2 -46 21 -78t41 -52q26 -24 57 -39h-461q34 0 52.5 24t18.5 58v632q0 22 -15 37t-37 15h206q-20 0 -34.5 -13.5t-16.5 -33.5v-622q0 -35 18 -58.5t52 -23.5h37q-20 26 -30.5 58.5t-10.5 67.5v9q1 1 1 2v8q2 28 11 51.5t22 42.5t29 34t33 26q39 26 86 42
q-22 -16 -40 -42q-15 -22 -27.5 -55.5t-12.5 -79.5v-10z" />
    <glyph glyph-name="M" unicode="M" horiz-adv-x="629" 
d="M648 -129q29 -48 69 -69q29 -16 61 -16q12 0 24 2q-36 -18 -73 -18h-3q-59 0 -111 38t-84 102q-11 24 -19 50.5t-12 55.5l-1 8v1l-40 375q-11 -28 -25.5 -54.5t-31.5 -52.5q-22 -33 -47 -62q8 -8 15 -16t15 -16q20 -18 35 -38t23 -47l3 -9q-15 7 -33 12q-16 5 -36.5 9
t-44.5 4t-44.5 -4t-36.5 -9q-18 -5 -33 -12l3 9q8 27 23.5 47t35.5 38l14 16t15 16q-11 14 -23 29.5t-23 32.5q-38 53 -58 107l-40 -384l-3 -24q-1 -7 -1 -13q0 -26 13 -45q16 -24 50 -24h-244q34 0 55 24t24 58l3 24l62 593l2 15v5q0 18 -11 32q-14 15 -35 15h227
q-2 0 -3 -0.5t-3 -0.5q-8 -2 -13 -3q-11 -4 -23.5 -14.5t-22.5 -29.5t-16 -47q-5 -21 -5 -49v-18q1 -17 11.5 -27t18.5 -10q15 0 25 10.5t10 24.5q0 17 -13 27q28 -13 28 -44q0 -21 -15 -36t-37 -15q-5 0 -9.5 1t-9.5 3q14 -62 42 -108t60 -83q32 37 60 83t43 108
q-5 -2 -10 -3t-10 -1q-22 0 -37 15t-15 36q0 14 8 26t20 18q-13 -10 -13 -27q0 -14 10.5 -24.5t24.5 -10.5q8 0 18.5 10t11.5 27v11q0 33 -5 57q-6 28 -16 46.5t-22.5 29t-23.5 14.5q-3 1 -6.5 1.5t-6.5 1.5q-2 0 -3 0.5t-2 0.5h226q-21 0 -34 -15q-12 -14 -12 -32v-5l2 -15
l61 -584q5 -36 12 -65q3 -14 7 -26.5t9 -23.5t9.5 -20.5t9.5 -18.5zM332 155q20 0 20 10t-12 28q-2 2 -4 5t-4 5q-2 -2 -4 -5t-4 -5q-12 -18 -12 -28t20 -10z" />
    <glyph glyph-name="N" unicode="N" horiz-adv-x="453" 
d="M354 596q0 16 -2 31t-7.5 25.5t-16 17t-26.5 6.5q37 0 65.5 13t61 28.5t74 28.5t104.5 13h-5q-41 -1 -77.5 -16t-64.5 -37t-44 -47.5t-16 -46.5v-422q2 -33 11.5 -67.5t32.5 -76.5q37 -64 64.5 -100t49.5 -36q-33 0 -63 1t-57 11t-52 33.5t-50 67.5q-10 18 -18.5 33
t-16.5 29l-66 116l-118 208v-419q1 -33 19 -56.5t52 -23.5h-188q34 0 52.5 24t18.5 58v632q0 22 -15 37t-37 15h167q-11 0 -23 -8t-18 -24q-5 -12 -5 -29v-10q2 -24 19 -54l4 -6l191 -337v388z" />
    <glyph glyph-name="O" unicode="O" horiz-adv-x="376" 
d="M188 676q39 0 70.5 -13t53 -35.5t33 -53t11.5 -64.5v-434q0 -35 -11.5 -65t-33 -52.5t-53 -35.5t-70.5 -13t-70 13t-53 35.5t-33.5 52.5t-11.5 65v434q0 34 11.5 64.5t33.5 53t53 35.5t70 13zM254 603q0 24 -18.5 41t-47.5 17t-47 -17t-18 -41v-621q0 -24 18 -40.5
t47 -16.5t47.5 16.5t18.5 40.5v621z" />
    <glyph glyph-name="P" unicode="P" horiz-adv-x="367" 
d="M392 508q0 -50 -21 -82.5t-51.5 -51t-65 -26t-60.5 -7.5h-20v-389q0 -21 8 -42q17 -40 57.5 -62t84.5 -22q-42 0 -70 6t-49.5 15.5t-40 20.5t-40.5 20.5t-51 15.5t-72 6h7q1 0 2 1h6v1h4q0 1 1 1h1l1 1h2q1 0 1 1h1l1 1h2q1 1 2 1l1 1q19 10 28.5 29.5t9.5 44.5v615
q0 29 -20.5 49t-49.5 20h193q26 0 60.5 -7.5t65 -26.5t51.5 -51t21 -83zM286 474q2 8 3 17t1 17q0 29 -9 55t-23.5 46.5t-33 34t-37.5 17.5h-13v-305h13q5 2 10.5 3.5t10.5 4.5q-20 2 -26 21q-2 6 -2 12q0 7 3 13q5 12 18 17q6 2 12 2q11 0 20 -9q-5 3 -11 3h-2
q-13 -1 -17 -13q-2 -3 -2 -6q0 -7 8 -11q5 -2 10 -2t12 3q11 4 21.5 14.5t19 26t13.5 35.5q0 1 1 2v2z" />
    <glyph glyph-name="Q" unicode="Q" horiz-adv-x="406" 
d="M242 -85q4 -8 13 -21.5t25 -27.5t39.5 -25.5t56.5 -16.5q-49 0 -83.5 5.5t-59 16.5t-41 27.5t-28.5 39.5q-63 11 -98.5 56.5t-35.5 106.5v434q0 34 11.5 64.5t33.5 53t53 35.5t70 13t70.5 -13t53 -35.5t33 -53t11.5 -64.5v-434q0 -59 -32.5 -103t-91.5 -58zM133 -18
q0 -23 18 -40t47 -17t47.5 17t18.5 40v621q0 24 -18.5 41t-47.5 17t-47 -17t-18 -41v-621z" />
    <glyph glyph-name="R" unicode="R" horiz-adv-x="391" 
d="M816 -144q-6 -23 -23 -41.5t-43 -31t-61 -16.5q-17 -3 -34 -3q-20 0 -41 3q-54 6 -101.5 32.5t-88 64t-74 80.5t-58 83t-41 71.5t-22.5 45.5q-18 41 -31.5 78t-23.5 66v-296q0 -35 18 -58.5t52 -23.5h-244q34 0 52.5 23.5t18.5 58.5v615q0 29 -20.5 49t-49.5 20h193
q26 0 60.5 -7.5t65 -26.5t51.5 -51t21 -83q0 -47 -19 -78.5t-46.5 -50.5t-59.5 -27.5t-59 -10.5q18 -5 42 -5q2 0 5 1q26 0 57 11q-3 -6 -9.5 -13t-15.5 -12q3 -14 11 -43.5t22 -69.5t34 -88t48 -97q11 -20 23 -39.5t26 -39.5q0 -1 1 -1v-1q1 -1 1 -2q4 -5 7.5 -9t6.5 -9
q51 -65 108.5 -101t118.5 -36h3q15 0 30 3h1q8 2 15 5t13 8q11 9 12 19q1 3 1 9q0 8 -4.5 14t-10.5 7q5 1 10 1q7 0 13 -4q8 -7 10 -18v-2q0 1 1 1v1q1 1 1.5 2t1.5 2q4 9 4 22q0 20 -13 37q-12 16 -31 16h-2q-23 0 -35.5 -14.5t-12.5 -30.5q0 -10 4 -18q6 -9 15 -15h-2
q-32 0 -48 25q-2 2 -2 3q-4 7 -5.5 13t-2.5 11v1q-1 3 -1 7q0 2 1 5q0 6 2 12q5 20 23.5 37t53.5 17h7q3 0 6 -1q15 -3 28 -13q7 -3 11 -9q27 -25 27 -64q0 -5 -0.5 -10t-1.5 -10zM174 354q16 0 34 10q-8 1 -15.5 6.5t-10.5 14.5q-2 6 -2 12q0 7 3 13q5 12 18 17q6 2 12 2
q11 0 20 -9q-5 3 -11 3h-2q-13 -1 -17 -13q-2 -3 -2 -6q0 -7 8 -11q5 -2 10 -2q6 0 13 3q12 5 23.5 17t20 30t11.5 40q1 1 1 3v1q0 2 0.5 3t0.5 2v10q1 0 1 1v7q0 29 -9 55t-23.5 46t-33 33.5t-37.5 18.5h-13v-307z" />
    <glyph glyph-name="S" unicode="S" horiz-adv-x="479" 
d="M449 99q0 -91 -57.5 -144t-160.5 -53q-32 0 -65.5 9.5t-65.5 32.5q-12 9 -23 20q-29 29 -42 68q-10 28 -10 58q0 11 1 22q-26 -21 -59 -25q-9 -2 -17 -2q-25 0 -49 11q-1 0 -1 1h-1q-26 13 -40 38q-12 21 -12 43q0 5 1 10q1 1 1 3q4 29 20 48.5t37 28.5q16 7 33 7h10
q22 -3 38 -18t21 -33q3 -9 3 -18q0 -8 -2 -15q-5 -15 -17.5 -26t-31.5 -12q7 5 12 16q3 6 3 13q0 3 -1 7q-2 10 -8.5 18.5t-17.5 13.5q-9 4 -20 4h-4q-13 -1 -22 -9.5t-13 -19.5q-5 -10 -5 -21q0 -2 1 -3q0 -13 7 -23q2 -4 4 -6l3 -3q0 -2 2 -2q4 -5 12 -9q21 -12 43 -12h7
q23 0 44 12q23 13 33 34q18 40 55 62q31 18 66 18q6 0 13 -1h4q44 -5 74 -28t44 -54q12 -26 12 -52q0 -6 -1 -12q-3 -33 -25 -58q-22 -24 -48 -32q-15 -5 -30 -5q-10 0 -19 2q-24 6 -40 24t-19 47q12 -12 25 -17q9 -4 18 -4q5 0 11 1q15 3 27.5 13.5t20.5 27.5q5 11 5 25
q0 5 -1 11q-2 19 -15 32t-30 20q-14 5 -29 5h-7q-19 -2 -34 -12q-6 -4 -9 -7h3q15 0 27 -10q10 -9 10 -24q0 -4 -1 -8q-6 12 -23 12h-4q-10 -2 -18 -7q-12 -8 -19 -23.5t-8 -34.5v-6q0 -16 4 -33q5 -21 16 -37l2 -2v-1q19 -24 43 -38q1 0 3 -2q26 -15 57 -21q22 -4 44 -4h15
q18 2 36.5 8.5t36 17t31 25t21.5 32.5q3 8 4.5 17t2.5 17v15q0 6 -2 12q-1 1 -1 2q-5 28 -22.5 54t-62.5 61q-1 1 -15 12.5t-31 23.5h-1q-18 14 -37 28t-37 29q-45 35 -72 75t-38 80q-10 32 -10 63q0 7 1 14q2 38 15 69q12 29 33 50t49 32q24 9 51 9h8q32 -2 66 -19h1
q0 -1 1 -1h1q2 -2 3 -2h1q0 -1 1 -1h1v-1q2 0 4 -2l1 -1q1 0 3 -2q1 0 2 -1h1q0 -1 1 -1q2 -1 2.5 -1.5t2.5 -1.5q2 -2 4 -3q8 -5 16 -9t16 -5q7 0 15 3q2 1 2.5 1.5t2.5 1.5q10 5 16.5 12t8.5 11l-83 -117l-91 -127q6 9 16.5 27t21.5 40.5t19 47.5t9 50q0 26 -9 42t-23 24
q-1 0 -1 1q-17 9 -34 9q-10 0 -20 -3q-27 -9 -45 -31q-21 -25 -21 -65v-1q0 -14 5 -36q11 -38 46 -77t100 -84q23 -16 42.5 -31t35.5 -30q47 -40 68 -90.5t21 -98.5v-5z" />
    <glyph glyph-name="T" unicode="T" horiz-adv-x="535" 
d="M585 676q-39 -3 -75.5 -46t-68.5 -121q-20 -47 -21 -77v-5q0 -27 12 -34q6 -2 9 -2q6 0 11 3q-4 -14 -15 -18q-5 -2 -10 -2q-6 0 -12 3q2 -4 4 -6q7 -11 18.5 -17t24.5 -6q1 -1 2 -1q12 0 23 5t18 16t7 23v2q-1 12 -6 22t-14 16.5t-19 6.5q-9 0 -21 -5q8 15 21 22.5
t27 7.5h3q18 -1 29.5 -8t18.5 -16.5t9.5 -20t3.5 -17.5q1 -3 1 -9v-1q0 -32 -18 -52q-10 -11 -25 -18q-4 -2 -7 -2.5t-7 -2.5q-10 -2 -21 -2q-12 0 -25 3q-23 6 -40 24q-11 11 -17 25q-6 16 -6 32v9q2 20 8 41q10 30 22 59.5t12 55.5q-10 -10 -23 -10t-21.5 8.5t-8.5 20.5
q0 18 16 26q-8 -6 -8 -16q0 -8 6 -14t15 -6q7 0 15 11q3 5 3 11q0 8 -6 19q-2 5 -5 8.5t-7 8.5l-3 3q-28 28 -71 28h-10q-14 0 -14 -13v-656q0 -34 18.5 -58t52.5 -24h-245q35 0 53 24t18 58v656q0 13 -13 13h-11q-43 0 -71 -28l-3 -3q-4 -5 -7 -8.5t-5 -8.5q-5 -9 -5 -17
t2.5 -13t7 -8t8.5 -3q8 0 14 6t6 14q0 10 -8 16q16 -8 16 -26q0 -12 -8.5 -20.5t-21.5 -8.5t-23 10q0 -26 12 -55.5t22 -59.5q6 -21 8 -41v-9q0 -16 -6 -32q-6 -13 -16 -25q-17 -18 -40 -24q-13 -3 -26 -3q-11 0 -21 2q-4 2 -7 2.5t-6 2.5q-16 6 -26 18q-18 20 -18 52v1
q0 2 0.5 4.5t0.5 4.5q1 7 3.5 17.5t9.5 20t18.5 16.5t29.5 8h4q14 0 26.5 -7.5t20.5 -22.5q-10 5 -21 5q-10 0 -19 -6.5t-14 -16.5t-5 -22q-1 -1 -1 -2q0 -12 7 -23t19 -16q10 -5 22 -5q1 0 2 1q13 0 25 6t19 17l3 6q-6 -3 -12 -3q-5 0 -9 2q-11 4 -15 18q4 -3 10 -3
q3 0 9 2q13 7 13 33v6q-2 30 -22 77q-32 78 -68.5 121t-75.5 46h635zM93 512l1 -2q-1 0 -1 2z" />
    <glyph glyph-name="U" unicode="U" horiz-adv-x="409" 
d="M238 676q42 0 69.5 6.5t47 15.5t35 20t35 20t46 15t68.5 6q-45 0 -85.5 -22t-57.5 -61q-8 -21 -8 -42v-558q0 -35 -11.5 -65t-33.5 -52.5t-53 -35.5t-70 -13t-70.5 13t-53 35.5t-33 52.5t-11.5 65v548q0 22 -15 37t-37 15h206q-20 0 -35 -13.5t-17 -33.5v-647
q0 -24 18.5 -40.5t47.5 -16.5q16 0 25 4q21 8 29.5 23t8.5 31q0 15 -7 28t-16 18q-12 6 -24 6q-5 0 -9 -1q-18 -3 -31 -17q-9 -9 -13 -21q-3 -8 -3 -16q0 -4 1 -8q-4 13 -4 27q0 8 1 16q4 21 20 38q17 18 41 23q9 2 17 2q15 0 29 -6v526q0 13 -0.5 24t-2.5 20
q-5 14 -17.5 23.5t-29.5 10.5h3z" />
    <glyph glyph-name="V" unicode="V" horiz-adv-x="419" 
d="M227 676q65 0 105 13t69 28.5t55 28.5t63 13q-39 0 -65.5 -19.5t-47.5 -63.5q-3 -8 -6.5 -15.5t-6.5 -15.5q-12 -33 -24 -75l-171 -660h-93q19 0 29 13q8 10 8 24v6l-138 644q-8 33 -24.5 56t-49.5 23h174q-34 0 -47 -24q-9 -15 -9 -34q0 -11 3 -24l5 -24l95 -444
l115 444l2 5l6 23q3 12 3 22q0 18 -8 33q-12 22 -44 23h2z" />
    <glyph glyph-name="W" unicode="W" horiz-adv-x="564" 
d="M634 676q-34 0 -54.5 -24t-24.5 -58l-3 -24l-62 -593l-2 -15v-6q0 -18 12 -31q13 -15 34 -15h-226q3 0 5 1q7 0 13 3q12 4 25 15.5t23.5 31.5t16.5 51q3 19 3 45q0 13 -1 29q-1 3 -1 7q0 3 -1 7q-10 76 -41.5 131t-67.5 97q-36 -42 -67.5 -97t-41.5 -131q-1 -4 -1 -7v-7
q-1 -16 -1 -29q0 -26 4 -45q5 -31 15 -51t23 -31.5t25 -15.5q7 -3 13 -3q2 -1 6 -1h-227q21 0 35 15q11 13 11 31v6l-2 15l-62 593l-3 24q-3 34 -24 58t-55 24h244q-34 0 -50 -24q-13 -19 -13 -45q0 -6 1 -13l3 -24l40 -384q11 28 25.5 54.5t32.5 52.5q11 17 23 32.5
t23 29.5q-8 8 -15 15.5t-14 15.5q-20 19 -35.5 39t-23.5 46q-1 2 -1.5 5t-1.5 5q15 -8 33 -13q16 -5 36.5 -9t44.5 -4t44.5 4t36.5 9q18 5 33 13q-1 -2 -1.5 -5t-1.5 -5q-8 -26 -23 -46t-35 -39q-8 -8 -15 -15.5t-15 -15.5q25 -29 47 -62q17 -26 31.5 -52.5t25.5 -54.5
l41 384l2 24q1 7 1 13q0 26 -13 45q-16 24 -50 24h244zM290 392q12 19 12 29t-20 10t-20 -10t12 -29q2 -2 4 -4.5t4 -4.5q2 2 4 4.5t4 4.5z" />
    <glyph glyph-name="X" unicode="X" horiz-adv-x="430" 
d="M386 39q17 -44 44.5 -82t61.5 -63.5t73 -34.5q15 -3 30 -3q25 0 51 9q-49 -21 -99 -30q-20 -4 -39 -4q-30 0 -59 9q-47 15 -89.5 61.5t-76.5 137.5l-61 167l-81 -216q-6 -18 -6 -33q0 -13 5 -24q11 -23 47 -23h-187q37 0 58.5 24t34.5 58l9 24l95 255l-114 309l-5 14
q-6 17 -13 32t-15.5 26t-20.5 17.5t-29 6.5h221q-32 0 -42 -22q-6 -11 -6 -25t6 -30l70 -189l60 160l9 24q7 18 7 34q0 13 -5 24q-11 24 -47 24h201q-37 0 -65.5 -24t-41.5 -58l-9 -24l-85 -226z" />
    <glyph glyph-name="Y" unicode="Y" horiz-adv-x="487" 
d="M462 -13q-7 -12 -15.5 -22t-18.5 -18q-33 -28 -71 -37q-27 -6 -50 -6q-10 0 -20 1l-15 3q-2 1 -3 1q-2 0 -4 1q-2 0 -6 2q-17 5 -30 11t-21 11q-6 4 -9.5 6.5t-5.5 3.5q-3 2 -6 5l-5 5q-7 6 -12.5 12t-10.5 12l-9 12q-12 16 -18 33q-5 11 -8.5 22t-5.5 23q-1 2 -1 5
q-3 16 -3 32q0 13 1 26t3 26l3 15v2l1 2v4q1 0 1 2q2 6 3 12t3 13q2 5 3.5 10.5t3.5 10.5q3 11 8 25l18 48v1h1l-106 285l-5 13q-6 16 -12 29.5t-14 24t-19 16.5t-27 6h205q-30 0 -39 -21q-5 -10 -5 -23t5 -28l65 -173l54 146l9 23q7 17 7 32q0 12 -5 22q-10 22 -44 22h173
q-20 0 -37 -8t-31 -22l-140 -372l-10 -26q-2 -7 -4.5 -14.5t-5.5 -15.5q-3 -9 -5.5 -18.5t-4.5 -19.5q-2 -5 -2.5 -11t-1.5 -11q-2 -11 -3 -21.5t-1 -21.5q1 -9 1.5 -18.5t2.5 -18.5q2 -7 3.5 -13.5t4.5 -12.5v-1q2 -4 3 -7t3 -7q13 -24 34 -42q8 -7 18 -10t21 -5h12
q3 1 6 1t6 1q5 1 10.5 3t10.5 4q3 2 6 3.5t5 3.5q16 13 16 27q0 4 -2 12q21 -14 23 -37q0 -6 -1 -10q-3 -14 -12 -24q4 0 6 1q3 0 7 2q25 7 43 30q21 25 24 59v7q0 29 -19 50q-11 13 -25 19t-28 8q-6 1 -11 1q-17 0 -33 -7q-21 -10 -32 -27q-4 -6 -6 -13q-4 -13 -4 -26
q0 -6 1 -12q-13 12 -20 26q-11 23 -11 46v4q2 26 16 48t40.5 36.5t62.5 16.5h6q39 0 71 -22q34 -24 52 -63q12 -26 16 -54q1 -10 1 -20q0 -19 -5 -40q-6 -23 -20 -47z" />
    <glyph glyph-name="Z" unicode="Z" horiz-adv-x="410" 
d="M421 -90q-13 -21 -30 -34q-1 0 -1 -1q-20 -14 -47.5 -22.5t-65.5 -9.5h-5q-35 0 -71 8.5t-74 20.5q-17 6 -31 9q-28 9 -50 9h-2q-22 -1 -36 -4q-8 -1 -13 -3q-6 -2 -7 -3l-2 -1l5 12l7 19l20 53l20 53l207 554l9 24q7 19 7 35v4q-1 17 -12 28h-107q19 -27 29.5 -59
t10.5 -67v-14q0 -3 -1 -4v-1q-5 -56 -33.5 -94t-61.5 -60q-39 -26 -86 -42q22 16 40 42q15 22 28 55t13 79q0 4 -1 6v4q-2 46 -20.5 78.5t-40.5 52.5q-26 24 -57 39h448q-28 0 -51 -14v-1h-1q-19 -11 -33 -28.5t-22 -38.5l-9 -24l-208 -555l-9 -25l-20 -52v-1q10 2 16 2h20
q14 0 31 -2q5 0 7 -1h3q2 0 3 -0.5t3 -0.5q4 -1 8 -1q3 0 7 -2h4q8 -2 15.5 -3.5t15.5 -3.5t16 -4.5t16 -4.5q5 -2 8.5 -3t8.5 -3q2 -1 4 -1.5t4 -1.5q23 -8 43 -13t31 -6h3q38 0 59 22q10 10 16 27q1 1 1 3q4 13 5 27v2q0 12 -5 22t-15 16.5t-27 6.5q-8 0 -12 -3
q6 17 20 21q5 1 9 1q9 0 18 -5q-2 6 -4 8q-8 16 -24.5 25t-34.5 10h-4q-12 0 -23 -4q-13 -6 -21 -18q-10 -14 -11 -29v-6q0 -12 4 -23q5 -13 15.5 -22t23.5 -10q4 -1 8 -1q9 0 19 4q-15 -22 -36 -29q-11 -3 -22 -3q-10 0 -21 3q-19 6 -34 22.5t-22 42.5q-2 10 -2 20
q0 13 4 26q6 22 22 39q17 20 44 31q20 9 44 9q6 0 13 -1q9 -2 18.5 -4t19.5 -6q1 0 1.5 -0.5t1.5 -0.5q30 -14 49 -40l1 -1v-1l2 -2v-1q21 -32 21 -71q0 -40 -17 -74q-4 -8 -7 -11z" />
    <glyph glyph-name="bracketleft" unicode="[" horiz-adv-x="248" 
d="M144 366q0 -20 5 -31.5t12 -17.5q7 -7 17 -10q-10 -3 -17 -10q-7 -6 -12 -17t-5 -31v-294h104v-39h-193v333q0 20 -5.5 31t-12.5 17q-8 7 -17 10q9 3 17 10q7 6 12.5 17.5t5.5 31.5v332h193v-38h-104v-294z" />
    <glyph glyph-name="backslash" unicode="\" horiz-adv-x="285" 
d="M187 307q-8 -3 -12 -8q-5 -5 -7 -14q-1 -3 -1 -7q0 -7 3 -18l95 -260h-41l-90 248h-1q-8 20 -17 31.5t-18 17.5q-11 7 -21 10q8 3 13 10q5 6 6 17v3q0 11 -5 27l-91 251h41l90 -249q7 -20 16.5 -31.5t18.5 -17.5q11 -7 21 -10z" />
    <glyph glyph-name="bracketright" unicode="]" horiz-adv-x="248" 
d="M194 366q0 -20 5 -31.5t12 -17.5q7 -7 17 -10q-10 -3 -17 -10q-7 -6 -12 -17t-5 -31v-333h-194v39h105v294q0 20 -5.5 31t-12.5 17q-8 7 -17 10q9 3 17 10q7 6 12.5 17.5t5.5 31.5v294h-105v38h194v-332z" />
    <glyph glyph-name="grave" unicode="`" 
d="M55 651q14 0 24 -10.5t10 -24.5v-9q0 -13 -5 -25q-7 -19 -21.5 -33t-31.5 -24v16q21 18 30 41h-5l-1 -1q-1 0 -1 1h-1q-14 0 -23.5 10t-9.5 24t10 24.5t25 10.5z" />
    <glyph glyph-name="a" unicode="a" horiz-adv-x="373" 
d="M337 66q8 -27 18.5 -46.5t37.5 -19.5h-178q27 0 37 19q6 11 6 26q0 8 -2 18l-5 18l-1 4l-22 85q-11 36 -41 59.5t-69 25.5l-37 -170l-4 -19q-2 -10 -2 -19q0 -15 7 -27q10 -20 38 -20h-140q22 0 34.5 12.5t19.5 32.5q-24 18 -38.5 46t-14.5 60q0 48 30 84t75 45l72 335
h37l137 -530zM79 251q-37 -11 -61.5 -42.5t-24.5 -72.5q0 -27 11 -50.5t30 -40.5q2 5 3 9t2 9zM124 283q50 -5 85 -41l-51 200z" />
    <glyph glyph-name="b" unicode="b" horiz-adv-x="337" 
d="M201 386q21 -3 42.5 -11.5t39.5 -23t30 -37t14 -53.5v-126q0 -42 -16 -79t-43 -64t-64 -43t-79 -16q-53 0 -97 25q8 -2 17 -3t18 -1q30 0 66 9.5t65 36.5h-194q27 0 42 19.5t15 46.5v507q0 17 -12.5 29.5t-29.5 12.5h144q19 0 43.5 -5.5t46 -19t36.5 -36.5t15 -58
q0 -25 -8.5 -43.5t-22.5 -31.5t-32 -21.5t-36 -13.5zM139 389q15 4 29 13.5t25 24t18 32t7 37.5q0 30 -11 55t-28 39q-1 0 -3 2q-8 6 -15 8.5t-11 2.5q-11 0 -11 -11v-203zM244 254q0 25 -8.5 47.5t-22 39t-29.5 26.5t-32 11h-13v-312q0 -27 14.5 -46t40.5 -20
q23 20 36.5 53t13.5 82v119z" />
    <glyph glyph-name="c" unicode="c" horiz-adv-x="308" 
d="M164 349q16 23 29 47q11 20 22.5 44.5t16.5 47.5q4 16 4 32v9q-2 20 -8.5 35.5t-18 26t-26.5 12.5h-6q-20 0 -37 -23t-30 -63t-20.5 -94t-7.5 -115q0 -30 3 -69t14 -78t32 -72.5t57 -50.5q37 -16 84 -16q19 0 36 3q-45 -25 -97 -25q-39 0 -76.5 21t-67.5 60.5t-48.5 96.5
t-18.5 130q0 59 12.5 112t34.5 93.5t51.5 67t64.5 32.5q4 1 7 1t7 1h6q27 0 45 -8.5t32 -18.5q2 0 4 -2q9 -6 17 -10t17 -5q7 0 15 3q2 1 2.5 1.5t2.5 1.5q10 5 17 12.5t9 11.5l-86 -121z" />
    <glyph glyph-name="d" unicode="d" horiz-adv-x="342" 
d="M167 615q21 0 48.5 -6t52.5 -21t42 -41t17 -66v-346q0 -42 -16 -79t-43 -64t-64 -43t-79 -16q-53 0 -97 25q8 -2 17 -3t18 -1q30 0 66 9.5t65 36.5h-194q27 0 42 19.5t15 46.5v507q0 17 -12.5 29.5t-29.5 12.5h152zM244 481q0 23 -7 43.5t-18.5 37t-26 27.5t-29.5 14h-13
q-11 0 -11 -11v-526q0 -27 14.5 -46t40.5 -20q23 20 36.5 53t13.5 82v346z" />
    <glyph glyph-name="e" unicode="e" horiz-adv-x="361" 
d="M262 144q0 -30 10.5 -56t28.5 -45.5t42.5 -31t52.5 -11.5h-396q27 0 42 19.5t15 46.5v299q-11 -5 -19 -11.5t-13 -11.5q-6 -6 -10 -13q2 6 7 13q5 6 13 14t22 17v200q0 17 -12.5 29.5t-29.5 12.5h346q-31 -2 -66 -34.5t-61 -92.5h-5q1 2 1 3t1 3q3 13 3 24v2
q0 20 -7 35.5t-19 26t-27 16t-31 5.5q-11 0 -11 -11v-185q37 15 57 33t28 36h5q-14 -35 -22 -79t-8 -96q-5 12 -9 21q-10 18 -23 29.5t-28 17.5v-291q0 -28 15 -47t42 -19h17q-15 21 -23.5 46.5t-8.5 54.5v15q4 45 27.5 75.5t49.5 48.5q31 21 69 34q-19 -14 -33 -34
q-12 -17 -22 -44t-10 -64z" />
    <glyph glyph-name="f" unicode="f" horiz-adv-x="350" 
d="M385 615q-31 -2 -66 -34.5t-61 -92.5h-5q1 2 1 3t1 3q3 13 3 24v2q0 21 -7.5 36.5t-20 26t-28 15.5t-31.5 5h-21q-11 0 -11 -11v-194l9 3q45 16 68 35.5t33 39.5h5q-14 -35 -22.5 -79t-8.5 -96q-5 12 -9 21q-14 25 -33.5 37.5t-41.5 14.5v-308q0 -27 15 -46.5t42 -19.5
h-196q27 0 42 19.5t15 46.5v284l-8.5 -8.5t-5.5 -6.5q-3 -4 -4 -6q0 3 3 7q2 3 5.5 8t9.5 10v219q0 17 -12.5 29.5t-29.5 12.5h370z" />
    <glyph glyph-name="g" unicode="g" horiz-adv-x="405" 
d="M349 93q5 -34 18.5 -64.5t36.5 -52.5l1 -1q-11 8 -21 14t-18 11q-1 1 -3 1v1q-22 11 -49 11h-2q-28 -1 -53 -7q-26 -6 -39 -6h-13q-11 1 -20.5 3.5t-17.5 5.5q-9 4 -16 8q-27 16 -49.5 44.5t-39 66t-25.5 83.5t-9 96v1q0 59 12.5 112t34.5 93.5t51.5 67t64.5 32.5
q4 1 7 1t7 1h6q27 0 45 -8.5t32 -18.5q2 0 4 -2q9 -6 17 -10t17 -5q7 0 15 3q2 1 2.5 1.5t2.5 1.5q10 5 17 12.5t9 11.5l-86 -121l-94 -131q16 23 29 47q11 20 22.5 44.5t16.5 47.5q4 16 4 32v9q-2 20 -8.5 35.5t-18 26t-26.5 12.5h-6q-20 0 -37 -23t-30 -63t-20.5 -94
t-7.5 -115t7.5 -115t20.5 -94t30 -63.5t37 -23.5q12 0 25 8h1l1 1q18 11 32 30q16 20 24 46q6 22 6 44v6q0 40 -19 65t-54 44q-17 9 -29.5 18t-21.5 17q-11 9 -18 16q28 -25 58.5 -36.5t61.5 -12.5q5 -1 11 -1q24 0 47 6q28 6 52 17q-11 -15 -19 -36q-8 -18 -13.5 -44
t-5.5 -59q0 -24 3 -48z" />
    <glyph glyph-name="h" unicode="h" horiz-adv-x="413" 
d="M356 66q0 -27 15 -46.5t42 -19.5h-196q27 0 42 19.5t15 46.5v214q-17 8 -32.5 20.5t-32 25t-33.5 23t-37 14.5v-297q0 -27 15 -46.5t42 -19.5h-196q27 0 42 19.5t15 46.5v272q-19 -22 -19 -52q0 -11 2 -23q-13 18 -17 36q-2 10 -2 19q0 8 2 15q3 16 12 29.5t22 21.5v189
q0 17 -12.5 29.5t-29.5 12.5h166q-17 0 -28.5 -11t-13.5 -27v-185q17 -5 30.5 -13t25.5 -19l3 -3q25 -21 42 -38t34 -27v281q0 17 -12.5 29.5t-29.5 12.5h165q-16 0 -27.5 -11t-13.5 -27v-278l3 3q13 15 15 31q1 4 1 8t-1 8q3 -13 3 -23q0 -22 -11 -35q-4 -6 -10 -10v-215z
" />
    <glyph glyph-name="i" unicode="i" horiz-adv-x="196" 
d="M139 66q0 -27 15 -46.5t42 -19.5h-196q27 0 42 19.5t15 46.5v507q0 17 -12.5 29.5t-29.5 12.5h166q-17 0 -28.5 -11t-13.5 -27v-511z" />
    <glyph glyph-name="j" unicode="j" horiz-adv-x="216" 
d="M216 615q-17 0 -28.5 -11t-13.5 -27v-442q0 -42 -16 -79t-43 -64t-63.5 -43t-78.5 -16q-53 0 -98 25q9 -2 18 -3t18 -1q26 0 57.5 7t59 27t46 55.5t18.5 91.5v438q0 17 -12.5 29.5t-29.5 12.5h166z" />
    <glyph glyph-name="k" unicode="k" horiz-adv-x="353" 
d="M257 368q-21 -15 -22 -56v-6q0 -39 12 -87q13 -52 38 -108t56.5 -102.5t66.5 -77t69 -30.5q40 0 76 33q-24 -24 -51 -37t-58 -13h-3q-32 1 -66 17q-52 25 -91 71.5t-67.5 101.5t-47.5 110.5t-30 98.5v-217q0 -27 15 -46.5t42 -19.5h-196q27 0 42 19.5t15 46.5v507
q0 17 -12.5 29.5t-29.5 12.5h180q-23 0 -39 -16.5t-17 -39.5v-181l85 165l8 16q6 13 6 24q0 9 -3 16q-8 16 -31 16h131q-23 0 -38 -16.5t-28 -39.5l-8 -16l-99 -193q6 -1 13 -1q12 0 27 3q23 3 55 16z" />
    <glyph glyph-name="l" unicode="l" horiz-adv-x="370" 
d="M275 136q2 -37 17 -62.5t32 -42.5q20 -19 46 -31h-370q27 0 42 19.5t15 46.5v507q0 17 -12.5 29.5t-29.5 12.5h166q-17 0 -28.5 -11t-13.5 -27v-499q0 -28 15 -47t42 -19h29q-15 21 -23.5 46.5t-8.5 54.5v15h1q4 45 27 75.5t49 48.5q31 21 69 34q-19 -14 -33 -34
q-12 -17 -22 -44t-10 -64q0 -3 1 -4v-4z" />
    <glyph glyph-name="m" unicode="m" horiz-adv-x="525" 
d="M482 66q2 -28 19 -47t44 -19h-196q28 0 41 19q10 15 10 36q0 6 -1 11l-2 19l-32 308q-8 -22 -20 -43.5t-26 -42.5q-9 -13 -18.5 -25.5t-19.5 -23.5q6 -7 12 -13.5t12 -12.5q16 -15 28 -30.5t19 -37.5q2 -4 2 -8q-12 6 -26 10q-12 4 -29 7.5t-36 3.5q-20 0 -36 -3.5
t-29 -7.5q-15 -4 -27 -10q2 6 2 8q7 22 19.5 37.5t28.5 30.5q5 6 11 12.5t12 13.5q-9 11 -18.5 23.5t-18.5 25.5q-14 21 -26 42.5t-20 43.5l-33 -308l-2 -19q-1 -5 -1 -10q0 -22 11 -37q13 -19 40 -19h-196q27 0 44 19t20 47l2 19l50 476l1 12v5q0 14 -9 25q-11 12 -28 12
h182q-3 0 -4 -1q-4 0 -10 -2q-10 -4 -20.5 -13t-19 -25t-12.5 -40q-3 -15 -3 -34q0 -12 1 -26q0 -8 1 -11q8 -62 33.5 -106t54.5 -78q28 34 54 78t34 106q0 7 1 11q1 11 1 21q0 22 -3 39q-5 24 -13.5 40t-19 25t-19.5 13q-3 1 -5.5 1.5t-5.5 0.5q-1 1 -4 1h182
q-17 0 -28 -12q-9 -11 -9 -25v-5l1 -12l51 -476zM263 197q16 0 16 8t-10 23q-2 2 -3 3.5t-3 3.5l-3.5 -3.5l-3.5 -3.5q-10 -15 -10 -23t17 -8z" />
    <glyph glyph-name="n" unicode="n" horiz-adv-x="363" 
d="M363 615q-17 0 -29.5 -12.5t-12.5 -29.5v-573l-227 401v-336q0 -27 15 -46t42 -19h-151q27 0 42 19.5t15 46.5v507q0 17 -12.5 29.5t-29.5 12.5h134q-9 0 -18.5 -6.5t-14.5 -18.5q-4 -10 -4 -24q0 -4 1 -8q1 -19 15 -43l3 -5l153 -270v333q0 17 -12.5 29.5t-29.5 12.5
h121z" />
    <glyph glyph-name="o" unicode="o" horiz-adv-x="300" 
d="M150 615q31 0 56.5 -10.5t42.5 -28.5t26.5 -42.5t9.5 -51.5v-349q0 -27 -9.5 -51.5t-26.5 -42.5t-42.5 -28.5t-56.5 -10.5q-32 0 -57 10.5t-42 28.5t-26.5 42.5t-9.5 51.5v349q0 27 9.5 51.5t26.5 42.5t42 28.5t57 10.5zM203 557q0 19 -15 32.5t-38 13.5t-38 -13.5
t-15 -32.5v-499q0 -19 15 -32.5t38 -13.5t38 13.5t15 32.5v499z" />
    <glyph glyph-name="p" unicode="p" horiz-adv-x="335" 
d="M155 615q21 0 49 -6t52.5 -21t41.5 -41t17 -66q0 -41 -17 -67t-41.5 -41t-52.5 -21t-49 -6h-16v-280q0 -27 15 -46.5t42 -19.5h-196q27 0 42 19.5t15 46.5v493q0 23 -16.5 39.5t-39.5 16.5h154zM150 358q15 3 30 14t26.5 27.5t19 37.5t7.5 44t-7.5 43.5t-19 37
t-26.5 27.5t-30 14h-11v-245h11z" />
    <glyph glyph-name="q" unicode="q" horiz-adv-x="308" 
d="M185 4q3 -7 10.5 -17.5t20 -21.5t31.5 -20.5t46 -13.5q-39 0 -67 4.5t-47.5 13t-32.5 22t-23 31.5q-51 9 -79.5 45.5t-28.5 85.5v349q0 27 9.5 51.5t26.5 42.5t42 28.5t57 10.5q31 0 56.5 -10.5t42.5 -28.5t26.5 -42.5t9.5 -51.5v-349q0 -47 -26 -82.5t-74 -46.5zM97 58
q0 -19 15 -32.5t38 -13.5t38 13.5t15 32.5v499q0 19 -15 32.5t-38 13.5t-38 -13.5t-15 -32.5v-499z" />
    <glyph glyph-name="r" unicode="r" horiz-adv-x="355" 
d="M381 11q41 -51 87 -80.5t95 -29.5q50 0 92 33q-29 -24 -62 -37t-71 -13h-9q-28 1 -57 11q-46 15 -85 45t-70.5 67t-55.5 76.5t-40 72.5q-5 11 -9.5 20.5t-8.5 17.5q-20 45 -20 49q-9 23 -16 43t-12 37v-257q0 -27 15 -46.5t42 -19.5h-196q27 0 42 19.5t15 46.5v493
q0 23 -16.5 39.5t-39.5 16.5h154q21 0 49 -6t52.5 -21t41.5 -41t17 -66q0 -37 -14.5 -62t-36 -40.5t-46.5 -22.5t-47 -9q15 -5 35 -5q2 0 4 1q21 0 46 9q-3 -10 -20 -20q3 -11 9 -35t17.5 -56t27.5 -70t39 -78q16 -31 39 -64l1 -1q0 -1 1 -1v-1q3 -4 5.5 -7.5t5.5 -7.5z
M150 358q15 3 30 14t26.5 27.5t19 37.5t7.5 44t-7.5 43.5t-19 37t-26.5 27.5t-30 14h-11v-244q2 0 3 -1h8z" />
    <glyph glyph-name="s" unicode="s" horiz-adv-x="300" 
d="M243 311q28 -25 45 -55t24 -61q4 -20 4 -39q0 -11 -1 -20q-4 -29 -15 -51q-18 -38 -57 -63q-35 -22 -78 -22q-28 0 -57 5t-46 5h-15q-8 0 -16 -2q-3 -1 -6.5 -1.5t-6.5 -1.5q-6 -2 -9 -4q-2 0 -2 -1q-19 -8 -40 -22q0 1 1 1q19 16 31.5 37.5t18.5 45.5q4 11 5 19
q3 21 3 43v10l-1 1v6q-2 22 -7 39q-6 20 -14 36t-16.5 28.5t-15.5 23.5t-10 22q4 -10 9 -16q7 -10 21.5 -22.5t39 -20t60.5 -7.5q35 0 85 15q-5 -2 -9 -4.5t-9 -5.5q-2 -2 -5 -2.5t-5 -2.5q-35 -17 -54 -38.5t-19 -56.5q0 -21 6 -40q3 -9 8 -19t13 -20q11 -15 27 -26.5
t35 -11.5q26 0 46.5 11.5t34 29t19.5 39.5q3 12 3 24q0 9 -2 17q0 1 -1 1q-3 23 -18 44t-51 50q-1 1 -12 10t-25 19q-1 0 -1 1q-15 11 -30.5 22t-29.5 24q-37 28 -58.5 60.5t-30.5 65.5q-9 28 -9 54q0 4 1 9q1 30 12 55q10 23 27 40.5t40 26.5q19 7 40 7h8q26 -2 54 -15
q0 -1 1 -1l1 -1q1 0 1.5 -0.5t1.5 -0.5l1 -1h1q1 -1 2 -1l1 -1l1 -1q1 0 1.5 -0.5t1.5 -0.5q0 -1 1 -1l1 -1q2 -1 2.5 -1.5t2.5 -1.5q1 0 3 -2q15 -10 26 -11q4 0 12 2q2 2 4 2q8 5 13.5 10.5t7.5 8.5l-68 -95l-74 -103q4 8 13 22.5t18 32.5t16 38.5t7 40.5q0 21 -7.5 34
t-18.5 19q0 1 -1 1q-15 8 -29 8q-8 0 -15 -3q-22 -7 -37 -25q-17 -20 -17 -53q1 -8 1.5 -14.5t2.5 -14.5q9 -32 37.5 -64t81.5 -68q38 -26 64 -49z" />
    <glyph glyph-name="t" unicode="t" horiz-adv-x="413" 
d="M453 615q-32 -2 -61 -36.5t-54 -97.5q1 8 2 17q1 8 2 17v4q0 7 -2 16q-1 5 -2 9t-3 9q-1 2 -2 3.5t-2 3.5v1q-12 21 -30.5 31.5t-41.5 10.5q-11 0 -11 -11v-526q0 -27 14.5 -46.5t42.5 -19.5h-197q28 0 42.5 19.5t14.5 46.5v526q0 11 -11 11q-23 0 -41.5 -10.5
t-30.5 -31.5v-1q-1 -2 -2 -3.5t-2 -3.5q-2 -5 -3 -9t-2 -9q-2 -11 -2 -20t1 -17q1 -9 3 -17q-25 63 -54 97.5t-61 36.5h493z" />
    <glyph glyph-name="u" unicode="u" horiz-adv-x="353" 
d="M353 615q-17 0 -28.5 -11t-12.5 -27v-444q0 -27 -9.5 -51.5t-27 -42.5t-42.5 -28.5t-56 -10.5q-32 0 -57 10.5t-42.5 28.5t-27 42.5t-9.5 51.5v174h1v266q0 17 -12.5 29.5t-29.5 12.5h165q-16 0 -27.5 -11t-13.5 -27v-519q0 -19 14.5 -32.5t38.5 -13.5q23 0 37.5 13.5
t14.5 32.5v515q0 17 -12 29.5t-29 12.5h165z" />
    <glyph glyph-name="v" unicode="v" horiz-adv-x="373" 
d="M393 615q-27 0 -40 -18.5t-19 -44.5l-119 -552h-37l-138 530l-5 19q-7 27 -17.5 46.5t-37.5 19.5h177q-26 0 -36 -18q-6 -12 -6 -27q0 -8 2 -18l5 -18l1 -4l92 -356l77 356l4 19q2 10 2 18q0 16 -7 29q-11 19 -38 19h140z" />
    <glyph glyph-name="w" unicode="w" horiz-adv-x="525" 
d="M545 615q-27 0 -44 -19.5t-19 -46.5l-2 -19l-51 -476l-1 -12v-5q0 -14 9 -24q11 -13 28 -13h-182q3 0 4 1q3 0 5.5 0.5t5.5 1.5q9 4 19.5 13t19 25t13.5 41q3 16 3 38q0 10 -1 21q-1 4 -1 11q-9 62 -34 106t-54 78q-29 -34 -54.5 -78t-33.5 -106q-1 -3 -1 -11
q-1 -14 -1 -26q0 -19 3 -33q4 -25 12.5 -41t19 -25t20.5 -13q6 -2 10 -2q1 -1 4 -1h-182q17 0 28 13q9 10 9 24v5l-1 12l-50 476l-2 19q-3 27 -20 46.5t-44 19.5h196q-27 0 -40 -19q-11 -16 -11 -37q0 -5 1 -10l2 -19l33 -308q16 43 46 85q9 14 18.5 26.5t18.5 23.5
q-6 7 -12 13t-11 13q-16 14 -28.5 30t-19.5 38q0 2 -2 8q12 -7 27 -11q13 -4 29 -7t36 -3q19 0 36 3t29 7q14 4 26 11q0 -4 -2 -8q-7 -22 -19 -38t-28 -30q-6 -7 -12 -13t-12 -13q20 -23 38 -50q30 -42 46 -85l32 308l2 19q1 5 1 10q0 21 -10 37q-13 19 -41 19h196zM269 387
q10 15 10 23t-16 8q-17 0 -17 -8t10 -23l3.5 -3.5l3.5 -3.5q2 2 3 3.5t3 3.5z" />
    <glyph glyph-name="x" unicode="x" horiz-adv-x="354" 
d="M290 104q12 -30 29.5 -56.5t39 -47t47 -32t53.5 -11.5q20 0 40 7q-22 -10 -40 -15q-35 -11 -70 -12h-4q-33 0 -63 15q-33 16 -62 52t-53 100l-49 134l-65 -173q-5 -14 -5 -26q0 -11 4 -20q9 -19 38 -19h-150q29 0 46.5 19.5t27.5 46.5l8 19l76 205l-91 248l-4 11
q-11 27 -23.5 46.5t-39.5 19.5h177q-26 0 -34 -18q-4 -8 -4 -19t5 -25l56 -152l48 129l7 19q6 15 6 27q0 11 -4 20q-9 19 -38 19h161q-29 0 -52 -19.5t-34 -46.5l-7 -19l-68 -181z" />
    <glyph glyph-name="y" unicode="y" horiz-adv-x="348" 
d="M146 210q-13 -35 -17 -73q-2 -15 -2 -29q0 -22 5 -43q7 -33 27.5 -55t56.5 -23h5q30 0 46.5 12.5t25 28t10 29.5t1.5 17q0 6 -1 10.5t-2 6.5q-8 19 -25 29q-11 5 -29 7h-8q-4 0 -8 -1q-15 -4 -25.5 -14.5t-10.5 -28.5q1 -19 14.5 -32.5t33.5 -13.5q12 0 20 4
q-9 -17 -24 -24q-11 -5 -22 -5q-4 0 -8 1q-16 2 -30 14t-21 33q-3 11 -3 21q0 11 3 21q7 21 23.5 36.5t41.5 22.5q10 2 21 2q15 0 31 -5q1 0 2 -1q27 -9 44.5 -32t17.5 -52v-2q0 -24 -9.5 -45.5t-25.5 -37.5t-37.5 -25.5t-45.5 -9.5t-48 8q-22 9 -39 26q-2 2 -3.5 4t-3.5 4
q-8 10 -13 17q-6 9 -10 18.5t-7 19.5q-4 11 -5.5 22t-2.5 22v10q0 20 3 42q2 18 6 34q1 2 1 5q0 2 1 4q2 5 3.5 10.5t3.5 10.5l31 82l-91 246l-4 11q-11 27 -23.5 46.5t-39.5 19.5h177q-26 0 -34 -18q-4 -8 -4 -19t5 -25l55 -150l48 127l7 19q6 14 6 27q0 10 -4 20
q-10 19 -39 19h151q-34 0 -60 -26z" />
    <glyph glyph-name="z" unicode="z" horiz-adv-x="371" 
d="M296 136q2 -37 17 -62.5t32 -42.5q20 -19 46 -31h-411q29 0 46.5 19.5t27.5 46.5l8 19l166 445l7 19q6 16 6 28q0 16 -9 26h-87q33 -44 33 -101v-9q-1 -1 -1 -2v-4q-4 -46 -27 -76t-49 -48q-31 -21 -69 -34q18 14 32 34q12 17 22 44t10 64v8q-2 37 -17 62.5t-32 42.5
q-20 19 -46 31h359q-21 0 -40 -11v-1h-1q-15 -9 -26.5 -23t-18.5 -31l-7 -19l-166 -445q-8 -21 -8 -35q-1 -2 -1 -3q0 -13 5 -20q5 -8 13.5 -11.5t18.5 -3.5h118q-33 44 -33 101v9q0 1 1 2v4q4 45 27 75.5t49 48.5q31 21 69 34q-18 -14 -32 -34q-12 -17 -22 -44t-10 -64v-8z
" />
    <glyph glyph-name="braceleft" unicode="{" horiz-adv-x="255" 
d="M141 441q0 -10 -4 -32t-17 -44.5t-36.5 -40t-63.5 -17.5v6q14 0 22.5 11.5t13 30t6 42.5t1.5 49q0 6 0.5 12.5t0.5 13.5q0 28 7.5 67.5t28.5 75.5q20 34 55.5 58.5t91.5 24.5h8v-10q-34 0 -57 -21t-37 -52q-10 -23 -14.5 -47t-4.5 -47v-53q0 -7 -0.5 -13.5t-0.5 -13.5z
M20 307q40 0 63.5 -17t36.5 -39.5t17 -44.5t4 -32q0 -7 0.5 -13.5t0.5 -13.5v-53q0 -23 4.5 -47t14.5 -47q14 -31 37 -52t57 -21v-10q-1 -1 -3 -1t-5 1v-1q-56 0 -92 24.5t-56 59.5q-20 36 -27.5 75.5t-7.5 67.5q0 6 -0.5 12.5t-0.5 13.5q0 25 -1.5 49t-6 42.5t-13 30
t-22.5 11.5v5z" />
    <glyph glyph-name="braceright" unicode="}" horiz-adv-x="255" 
d="M192 446q0 -25 1.5 -49t6 -42.5t13 -30t22.5 -11.5v-6q-40 0 -63.5 17.5t-36.5 40t-17 44.5t-4 32v80q0 23 -5 47t-15 47q-14 31 -37 52t-57 21v10h8q57 0 92.5 -24t55.5 -59q21 -36 28.5 -75.5t7.5 -67.5v-26zM114 174q0 10 4 32t17 44.5t36.5 39.5t63.5 17v-5
q-14 0 -22.5 -11.5t-13 -30t-6 -42.5t-1.5 -49v-26q0 -28 -7.5 -67.5t-28.5 -75.5q-20 -35 -56 -59.5t-92 -24.5v1q-1 -1 -3 -1t-5 1v10q34 0 57.5 21t37.5 52q9 23 14 47t5 47v80z" />
    </font>
</defs>
</svg>
